<svg xmlns="http://www.w3.org/2000/svg" width="1200" height="620" viewBox="0 0 1200 620" role="img" aria-labelledby="title desc">
<title id="title">AeroDock verified autonomous flight</title>
<desc id="desc">Top-down flight path with lidar detour and altitude over time.</desc>
<rect width="100%" height="100%" rx="22" fill="#0b1220"/>
<style>text{font-family:Inter,Segoe UI,sans-serif;fill:#dbeafe}.muted{fill:#94a3b8}.grid{stroke:#233047;stroke-width:1}.axis{stroke:#64748b;stroke-width:1.5}</style>
<text x="60" y="48" font-size="26" font-weight="700">Verified autonomous flight</text>
<text x="60" y="75" font-size="14" class="muted">PX4 SITL · ROS 2 Humble · Gazebo Harmonic · 98 telemetry samples</text>
<text x="70" y="80" font-size="18" font-weight="600">Top-down route (m)</text>
<text x="650" y="80" font-size="18" font-weight="600">Altitude profile</text>
<line class="grid" x1="70.0" y1="100" x2="70.0" y2="530"/>
<line class="grid" x1="70" y1="100.0" x2="580" y2="100.0"/>
<line class="grid" x1="650.0" y1="100" x2="650.0" y2="530"/>
<line class="grid" x1="650" y1="100.0" x2="1150" y2="100.0"/>
<line class="grid" x1="172.0" y1="100" x2="172.0" y2="530"/>
<line class="grid" x1="70" y1="186.0" x2="580" y2="186.0"/>
<line class="grid" x1="750.0" y1="100" x2="750.0" y2="530"/>
<line class="grid" x1="650" y1="186.0" x2="1150" y2="186.0"/>
<line class="grid" x1="274.0" y1="100" x2="274.0" y2="530"/>
<line class="grid" x1="70" y1="272.0" x2="580" y2="272.0"/>
<line class="grid" x1="850.0" y1="100" x2="850.0" y2="530"/>
<line class="grid" x1="650" y1="272.0" x2="1150" y2="272.0"/>
<line class="grid" x1="376.0" y1="100" x2="376.0" y2="530"/>
<line class="grid" x1="70" y1="358.0" x2="580" y2="358.0"/>
<line class="grid" x1="950.0" y1="100" x2="950.0" y2="530"/>
<line class="grid" x1="650" y1="358.0" x2="1150" y2="358.0"/>
<line class="grid" x1="478.0" y1="100" x2="478.0" y2="530"/>
<line class="grid" x1="70" y1="444.0" x2="580" y2="444.0"/>
<line class="grid" x1="1050.0" y1="100" x2="1050.0" y2="530"/>
<line class="grid" x1="650" y1="444.0" x2="1150" y2="444.0"/>
<line class="grid" x1="580.0" y1="100" x2="580.0" y2="530"/>
<line class="grid" x1="70" y1="530.0" x2="580" y2="530.0"/>
<line class="grid" x1="1150.0" y1="100" x2="1150.0" y2="530"/>
<line class="grid" x1="650" y1="530.0" x2="1150" y2="530.0"/>
<path d="M 233.4 441.6 L 538.0 441.6 L 475.7 302.7 L 538.0 441.6 L 538.0 162.5 L 233.4 162.5 L 233.4 441.6" fill="none" stroke="#64748b" stroke-width="2" stroke-dasharray="7 7"/>
<path d="M 236.7 445.2 L 236.4 445.7 L 236.4 446.3 L 236.7 445.5 L 237.3 444.9 L 237.6 445.2 L 237.8 445.8 L 238.6 446.1 L 239.1 445.5 L 237.8 440.4 L 235.8 430.4 L 236.9 426.8 L 238.8 432.2 L 237.0 440.4 L 234.3 445.2 L 232.6 446.9 L 232.8 447.3 L 233.2 448.2 L 233.4 448.5 L 233.4 448.1 L 232.5 447.0 L 232.1 444.7 L 232.8 442.8 L 233.3 441.7 L 245.6 440.4 L 288.9 456.1 L 179.2 497.4 L 105.5 482.1 L 110.6 470.0 L 127.8 432.1 L 138.3 371.6 L 215.5 335.0 L 318.2 322.0 L 407.7 311.1 L 449.3 313.2 L 472.4 326.4 L 481.5 348.7 L 493.1 364.2 L 494.8 369.5 L 497.1 368.2 L 500.6 358.6 L 499.3 347.5 L 495.8 342.3 L 494.8 340.3 L 496.2 340.9 L 495.9 338.7 L 493.2 335.5 L 488.5 330.1 L 484.2 324.3 L 481.6 320.1 L 481.2 316.2 L 481.7 314.9 L 494.6 339.5 L 517.9 377.8 L 535.5 407.7 L 544.5 428.4 L 543.4 438.7 L 537.0 443.3 L 529.6 427.5 L 519.7 345.9 L 509.1 257.4 L 505.1 192.8 L 510.8 155.1 L 522.2 137.6 L 534.3 132.6 L 542.3 135.1 L 502.1 140.6 L 406.8 150.5 L 305.0 162.9 L 241.6 169.1 L 211.8 168.4 L 200.4 163.1 L 198.8 156.3 L 203.4 205.6 L 213.5 301.0 L 221.1 367.4 L 225.6 415.5 L 223.9 438.7 L 219.5 445.7 L 217.5 446.5 L 218.0 444.8 L 216.7 444.2 L 216.5 445.1 L 218.8 447.4 L 222.9 449.2 L 226.0 450.8 L 227.5 452.1 L 228.9 453.2 L 230.7 453.1 L 232.0 452.5 L 233.0 452.0 L 232.7 451.6 L 232.1 451.1 L 231.8 450.7 L 231.2 451.4 L 231.4 452.1 L 231.7 452.5 L 232.5 453.6" fill="none" stroke="#22d3ee" stroke-width="4" stroke-linecap="round" stroke-linejoin="round"/>
<circle cx="233.4" cy="441.6" r="9" fill="#a78bfa" stroke="#0b1220" stroke-width="3"/>
<text x="245.4" y="431.6" font-size="13" font-weight="700">1</text>
<circle cx="538.0" cy="441.6" r="9" fill="#a78bfa" stroke="#0b1220" stroke-width="3"/>
<text x="550.0" y="431.6" font-size="13" font-weight="700">2</text>
<circle cx="475.7" cy="302.7" r="9" fill="#f59e0b" stroke="#0b1220" stroke-width="3"/>
<text x="487.7" y="292.7" font-size="13" font-weight="700">D</text>
<circle cx="538.0" cy="441.6" r="9" fill="#a78bfa" stroke="#0b1220" stroke-width="3"/>
<text x="550.0" y="431.6" font-size="13" font-weight="700">4</text>
<circle cx="538.0" cy="162.5" r="9" fill="#a78bfa" stroke="#0b1220" stroke-width="3"/>
<text x="550.0" y="152.5" font-size="13" font-weight="700">5</text>
<circle cx="233.4" cy="162.5" r="9" fill="#a78bfa" stroke="#0b1220" stroke-width="3"/>
<text x="245.4" y="152.5" font-size="13" font-weight="700">6</text>
<circle cx="233.4" cy="441.6" r="9" fill="#a78bfa" stroke="#0b1220" stroke-width="3"/>
<text x="245.4" y="431.6" font-size="13" font-weight="700">7</text>
<path d="M 650.0 524.7 L 655.2 525.1 L 660.3 526.5 L 665.5 526.3 L 670.6 527.5 L 675.8 529.2 L 680.9 531.2 L 686.1 533.0 L 691.2 531.8 L 696.4 531.3 L 701.5 533.3 L 706.7 522.2 L 711.9 492.6 L 717.0 460.7 L 722.2 401.4 L 727.3 336.4 L 732.5 293.4 L 737.6 263.3 L 742.8 242.2 L 747.9 222.9 L 753.1 209.5 L 758.3 198.0 L 763.4 189.4 L 768.6 181.2 L 773.7 166.7 L 778.9 162.2 L 784.0 200.0 L 789.2 304.5 L 794.3 433.9 L 799.5 552.7 L 804.6 542.1 L 809.8 544.4 L 815.0 542.4 L 820.1 537.1 L 825.3 532.1 L 830.4 528.0 L 835.6 528.3 L 840.7 525.5 L 845.9 527.2 L 851.0 523.2 L 856.2 501.6 L 861.3 476.5 L 866.5 455.0 L 871.7 412.4 L 876.8 344.6 L 882.0 269.3 L 887.1 229.0 L 892.3 203.7 L 897.4 193.0 L 902.6 185.3 L 907.7 179.5 L 912.9 171.3 L 918.1 165.3 L 923.2 159.1 L 928.4 156.6 L 933.5 155.5 L 938.7 156.5 L 943.8 158.2 L 949.0 153.8 L 954.1 156.5 L 959.3 157.5 L 964.4 156.9 L 969.6 156.2 L 974.7 154.8 L 979.9 152.9 L 985.1 149.6 L 990.2 143.8 L 995.4 149.2 L 1000.5 150.4 L 1005.7 151.3 L 1010.8 152.7 L 1016.0 153.3 L 1021.1 151.6 L 1026.3 147.1 L 1031.4 148.3 L 1036.6 148.2 L 1041.8 150.0 L 1046.9 150.4 L 1052.1 150.1 L 1057.2 149.8 L 1062.4 155.9 L 1067.5 195.1 L 1072.7 226.0 L 1077.8 259.9 L 1083.0 298.0 L 1088.1 334.5 L 1093.3 373.5 L 1098.5 415.6 L 1103.6 454.8 L 1108.8 491.0 L 1113.9 527.0 L 1119.1 535.8 L 1124.2 528.0 L 1129.4 525.5 L 1134.5 525.0 L 1139.7 522.2 L 1144.8 521.3 L 1150.0 521.2" fill="none" stroke="#34d399" stroke-width="4" stroke-linecap="round"/>
<line x1="650" y1="155.0" x2="1150" y2="155.0" stroke="#f59e0b" stroke-width="2" stroke-dasharray="7 7"/>
<text x="1058" y="146.0" font-size="13" fill="#f59e0b">3 m target</text>
<text x="70" y="570" font-size="14" class="muted">Cyan: measured path  ·  Purple: mission waypoint  ·  Orange D: lidar detour</text>
<text x="650" y="570" font-size="14" class="muted">Max 3.09 m  ·  Final 0.07 m  ·  Duration 50.4 s</text>
</svg>
